<svg xmlns="http://www.w3.org/2000/svg" viewBox="0 0 128 128">
<defs><linearGradient id="bg" x1="0" y1="0" x2="1" y2="1"><stop stop-color="#fffaf0"/><stop offset="1" stop-color="#f4dfb4"/></linearGradient><linearGradient id="gold" x1="0" y1="0" x2="1" y2="1"><stop stop-color="#c87900"/><stop offset="1" stop-color="#f2ad18"/></linearGradient></defs>
<rect x="4" y="4" width="120" height="120" rx="28" fill="url(#bg)" stroke="#d38a0a" stroke-width="4"/>
<g fill="none" stroke="url(#gold)" stroke-width="6" stroke-linecap="round" stroke-linejoin="round"><path d="M40 77c-8-9-7-23 3-30 8-6 19-5 26 2 5 5 10 6 15 3 7-4 14 1 14 8 0 9-9 15-18 13-8-2-13 3-15 10-3 10-17 12-25 4Z"/><circle cx="84" cy="52" r="3"/></g>
<circle cx="104" cy="24" r="7" fill="#a33b10"/><path d="M101 24h6" stroke="#fff" stroke-width="2"/>
</svg>